<?xml version="1.0" encoding="iso-8859-1"?>
<!-- Generator: Adobe Illustrator 18.0.0, SVG Export Plug-In . SVG Version: 6.00 Build 0)  -->
<!DOCTYPE svg PUBLIC "-//W3C//DTD SVG 1.1//EN" "http://www.w3.org/Graphics/SVG/1.1/DTD/svg11.dtd">
<svg version="1.1" id="Capa_1" xmlns="http://www.w3.org/2000/svg" xmlns:xlink="http://www.w3.org/1999/xlink" x="0px" y="0px"
	 viewBox="0 0 119.699 119.699" style="enable-background:new 0 0 119.699 119.699;" xml:space="preserve">
<g>
	
		<rect x="83.21" y="-4.25" transform="matrix(0.81 0.5864 -0.5864 0.81 29.3356 -45.3518)" style="fill:#FAA522;" width="2.896" height="53.693"/>
	<path style="fill:#FFF8A5;" d="M70.437,114.778H43.358c-1.358,0-2.46,1.102-2.46,2.46c0,1.359,1.102,2.461,2.46,2.461h27.079
		c1.358,0,2.461-1.102,2.461-2.461C72.898,115.88,71.795,114.778,70.437,114.778z"/>
	<rect x="54.457" y="61.918" style="fill:#FFF8A5;" width="4.882" height="55.321"/>
	<polygon style="fill:#FFF8A5;" points="95.667,16.631 56.897,66.025 18.127,16.631 	"/>
	<polygon style="fill:#E32A27;" points="86.302,22.597 56.897,60.059 27.493,22.597 	"/>
	<circle style="fill:#C0221F;" cx="44.288" cy="32.359" r="1.627"/>
	<circle style="fill:#C0221F;" cx="49.169" cy="38.597" r="3.254"/>
	<circle style="fill:#C0221F;" cx="60.287" cy="42.548" r="1.492"/>
	<circle style="fill:#C0221F;" cx="64.355" cy="37.783" r="2.576"/>
	<circle style="fill:#C0221F;" cx="69.507" cy="30.074" r="1.763"/>
	<circle style="fill:#C0221F;" cx="50.525" cy="27.207" r="2.867"/>
</g>
<g>
</g>
<g>
</g>
<g>
</g>
<g>
</g>
<g>
</g>
<g>
</g>
<g>
</g>
<g>
</g>
<g>
</g>
<g>
</g>
<g>
</g>
<g>
</g>
<g>
</g>
<g>
</g>
<g>
</g>
</svg>
